<?xml version="1.0" encoding="utf-8"?>
<!-- Generator: Adobe Illustrator 15.0.0, SVG Export Plug-In . SVG Version: 6.00 Build 0)  -->
<!DOCTYPE svg PUBLIC "-//W3C//DTD SVG 1.1//EN" "http://www.w3.org/Graphics/SVG/1.1/DTD/svg11.dtd">
<svg version="1.1" id="Layer_1" xmlns="http://www.w3.org/2000/svg" xmlns:xlink="http://www.w3.org/1999/xlink" x="0px" y="0px"
	 width="1500px" height="1500px" viewBox="0 0 1500 1500" enable-background="new 0 0 1500 1500" xml:space="preserve">
<g id="CKkNUE_2_">
	<g id="XMLID_1_">
		<g>
			
				<linearGradient id="SVGID_1_" gradientUnits="userSpaceOnUse" x1="295.4922" y1="647.3643" x2="1096.9225" y2="1448.7946" gradientTransform="matrix(1 0 0 -1 451 1395)">
				<stop  offset="0" style="stop-color:#EA3E4F"/>
				<stop  offset="0.5" style="stop-color:#EF675E"/>
				<stop  offset="0.9939" style="stop-color:#FF5741"/>
			</linearGradient>
			<path fill="url(#SVGID_1_)" d="M458.803,1233.879c-152.581-90.336-287.535-267.939-275.416-511.487
				c14.558-291.312,237.88-519.042,527.225-539.028c313.659-21.64,536.825,197.591,590.177,444.601
				c72.71,336.165-135.977,557.127-358.041,649.195c149.905-210.183,176.346-682.954-82.624-786.904
				c-187.598-75.307-370.79,51.229-369.845,232.138c0.943,164.462,154.312,295.718,334.434,236.07
				c-1.181,84.593-17.47,145.185-51.148,208.529c-22.033,41.549-75.778,130.941-121.97,137.708
				C604.695,1311.625,491.302,1253.08,458.803,1233.879z"/>
		</g>
		<g>
			<linearGradient id="SVGID_2_" gradientUnits="userSpaceOnUse" x1="346.8369" y1="1147.292" x2="1148.2675" y2="345.8614">
				<stop  offset="0" style="stop-color:#EA3E4F"/>
				<stop  offset="0.5" style="stop-color:#EF675E"/>
				<stop  offset="0.9939" style="stop-color:#FF5741"/>
			</linearGradient>
			<path fill="url(#SVGID_2_)" d="M942.748,1277.159c149.905-210.183,176.346-682.954-82.624-786.904
				c-187.599-75.307-370.79,51.229-369.845,232.138c0.943,164.462,154.312,295.718,334.434,236.07
				c-1.181,84.593-17.47,145.185-51.148,208.529c-22.033,41.549-75.778,130.941-121.97,137.708
				c-46.898,6.925-160.292-51.62-192.792-70.821c-152.581-90.336-287.535-267.939-275.416-511.487
				C197.945,431.08,421.268,203.35,710.612,183.363c313.659-21.64,536.825,197.591,590.177,444.601
				C1373.499,964.129,1164.812,1185.091,942.748,1277.159z"/>
		</g>
	</g>
</g>
</svg>
